<?xml version="1.0" encoding="utf-8"?>
<svg xmlns="http://www.w3.org/2000/svg" viewBox="0 0 24 24" width="24px" height="24px" fill="currentColor">
  <path d="M 12.016 6.192 C 10.497 6.192 9.266 7.409 9.266 8.913 C 9.266 10.415 10.497 11.634 12.016 11.634 C 13.535 11.634 14.766 10.415 14.766 8.913 C 14.766 7.409 13.535 6.192 12.016 6.192 Z" style="stroke: rgb(0, 0, 0); stroke-linejoin: round; fill: none;"/>
  <path d="M 18.417 14.221 C 19.314 14.804 19.921 15.536 19.921 16.415 L 19.921 18.096 L 22.562 18.096 L 22.562 16.79 C 22.562 15.274000000000001 20.115 14.42 18.417 14.221 Z" style="stroke: rgb(0, 0, 0); stroke-linejoin: round; fill: rgb(0, 0, 0);"/>
  <path d="M 5.584 14.221 C 3.885 14.42 1.4380000000000002 15.274000000000001 1.4380000000000002 16.79 L 1.4380000000000002 18.096 L 4.079 18.096 L 4.079 16.415 C 4.079 15.536 4.686 14.804 5.584 14.221 Z" style="stroke: rgb(0, 0, 0); stroke-linejoin: round; fill: rgb(0, 0, 0);"/>
  <path d="M 12.211 14.16 C 10.362 14.16 6.678 15.075 6.678 16.897 L 6.678 18.07 L 17.743 18.07 L 17.743 16.897 C 17.743 15.075 14.06 14.16 12.211 14.16 Z" style="stroke: rgb(0, 0, 0); stroke-linejoin: round; fill: none;"/>
  <path d="M 17.721 8.517 C 17.404 8.517 17.105 8.586 16.841 8.708 C 16.841 8.786999999999999 16.841 8.873 16.841 8.952 C 16.841 9.997 16.497 11.007 15.855 11.834 C 15.96 12 16.075 12.131 16.207 12.261 C 16.348 12.391 16.489 12.505 16.656 12.592 C 16.973 12.766 17.334 12.871 17.721 12.871 C 18.108 12.871 18.469 12.766 18.786 12.592 C 19.454 12.217 19.921 11.512 19.921 10.693 C 19.921 9.491 18.936 8.517 17.721 8.517 Z" style="stroke: rgb(0, 0, 0); stroke-linejoin: round; fill: rgb(0, 0, 0);"/>
  <path d="M 6.2780000000000005 8.517 C 5.064 8.517 4.079 9.491 4.079 10.693 C 4.079 11.512 4.545 12.217 5.214 12.592 C 5.531 12.766 5.891 12.871 6.2780000000000005 12.871 C 6.666 12.871 7.027 12.766 7.344 12.592 C 7.67 12.409 7.942 12.148 8.145 11.834 C 7.503 11.007 7.159 9.997 7.159 8.952 C 7.159 8.873 7.159 8.786999999999999 7.159 8.708 C 6.895 8.586 6.596 8.517 6.2780000000000005 8.517 Z" style="stroke: rgb(0, 0, 0); stroke-linejoin: round; fill: rgb(0, 0, 0);"/>
</svg>