<?xml version="1.0" encoding="utf-8"?>
<svg xmlns="http://www.w3.org/2000/svg" viewBox="0 0 140 40" height="40px" xmlns:bx="https://boxy-svg.com" width="140px">
  <defs>
    <bx:export>
      <bx:file format="svg" path="ComUni.svg"/>
    </bx:export>
  </defs>
  <g transform="matrix(0.283659, 0, 0, 0.283659, -22.422833, -41.507599)" style="">
    <path style="fill: none; stroke-linecap: round; stroke: rgb(255, 113, 21); stroke-linejoin: round; transform-origin: 154.554px 218.929px; stroke-width: 11.6343px;" d="M 186.765 259.522 C 164.475 272.54 138.436 266.592 123.022 249.88 C 99.355 262.232 117.787 252.436 94.877 264.394 C 106.303 227.118 96.87 257.302 109.561 218.001 C 109.518 217.169 109.608 216.329 109.604 215.482 C 109.434 181.512 141.738 156.764 174.493 165.767"/>
    <path style="stroke-linecap: round; stroke-width: 6px; fill: none; stroke: rgb(255, 113, 21); transform-box: fill-box; transform-origin: 0.19941% 50.2038%;" d="M 161.857 240.498 C 183.861 240.498 197.614 216.678 186.612 197.62 C 181.27 188.367 171.214 182.866 160.541 183.358" transform="matrix(-0.000104, 1.000002, -0.999998, -0.000104, 0.000013, -0.000012)"/>
    <path style="fill: none; stroke-linejoin: round; stroke-linecap: round; stroke-width: 6px; stroke: rgb(255, 113, 21);" d="M 174.298 194.091 L 163.805 200.805 L 179.543 201.248"/>
    <ellipse style="fill: none; stroke-width: 9px; stroke: rgb(255, 113, 21);" cx="147.717" cy="196.788" rx="4.218" ry="4.218"/>
  </g>
  <path d="M 42.493 33.848 C 40.483 33.848 38.753 33.107 37.305 31.623 C 35.69 29.971 34.84 27.751 34.756 24.963 C 34.684 22.258 35.367 19.876 36.803 17.818 C 38.478 15.389 40.812 14.174 43.803 14.174 C 46.197 14.174 48.01 15.269 49.243 17.459 C 50.224 19.23 50.697 21.36 50.661 23.85 C 50.625 26.507 49.931 28.774 48.579 30.653 C 47.047 32.783 45.018 33.848 42.493 33.848 Z M 43.57 17.818 C 41.811 17.806 40.441 18.644 39.459 20.331 C 38.682 21.684 38.293 23.227 38.293 24.963 C 38.293 26.698 38.765 28.05 39.711 29.02 C 40.501 29.821 41.428 30.222 42.493 30.222 C 43.738 30.222 44.809 29.768 45.706 28.858 C 46.724 27.853 47.262 26.495 47.322 24.783 C 47.49 20.152 46.239 17.83 43.57 17.818 Z M 77.89 34.279 C 76.909 34.279 76.334 33.759 76.167 32.718 C 75.951 31.401 75.736 29.546 75.52 27.153 L 74.91 21.588 C 74.79 20.762 74.587 19.954 74.3 19.165 C 73.893 18.088 73.45 17.549 72.971 17.549 C 72.529 17.549 71.703 17.926 70.494 18.68 C 69.345 19.374 68.591 19.93 68.232 20.349 C 68.22 21.474 68.25 22.599 68.322 23.724 L 68.86 28.517 C 69.088 30.408 69.202 31.97 69.202 33.202 C 69.202 33.729 69.037 34.163 68.708 34.504 C 68.379 34.845 67.957 35.015 67.442 35.015 C 66.928 35.015 66.506 34.845 66.177 34.504 C 65.848 34.163 65.683 33.729 65.683 33.202 C 65.683 31.754 65.537 29.615 65.243 26.785 C 64.95 23.955 64.803 21.815 64.803 20.367 C 64.803 19.099 64.624 18.112 64.265 17.405 C 63.427 17.788 62.578 18.411 61.716 19.272 L 59.598 21.642 C 59.406 21.929 59.101 22.306 58.682 22.773 C 58.682 23.491 58.616 24.55 58.485 25.95 C 58.353 27.35 58.287 28.385 58.287 29.056 C 58.287 29.415 58.344 29.917 58.458 30.564 C 58.572 31.21 58.628 31.677 58.628 31.964 C 58.628 32.454 58.446 32.867 58.081 33.202 C 57.716 33.537 57.288 33.705 56.797 33.705 C 55.445 33.705 54.769 32.167 54.769 29.091 C 54.769 28.374 54.835 27.303 54.966 25.878 C 55.098 24.454 55.164 23.383 55.164 22.665 C 55.164 22.031 55.107 21.079 54.993 19.811 C 54.88 18.542 54.823 17.585 54.823 16.938 C 54.823 14.222 55.433 12.864 56.654 12.864 C 57.121 12.864 57.548 13.067 57.937 13.474 C 58.326 13.881 58.521 14.324 58.521 14.802 C 58.521 15.03 58.491 15.383 58.431 15.862 C 58.371 16.34 58.341 16.705 58.341 16.957 L 58.377 18.841 C 58.999 17.561 59.915 16.403 61.124 15.368 C 62.332 14.333 63.362 13.815 64.211 13.815 C 66.09 13.815 67.383 14.748 68.088 16.615 C 68.747 15.742 69.531 15.087 70.44 14.65 C 71.35 14.213 72.391 13.995 73.564 13.995 C 75.562 13.995 76.927 15.072 77.657 17.226 C 77.8 17.657 78.045 19.338 78.392 22.27 C 78.728 24.328 79.159 27.757 79.685 32.556 C 79.721 33.035 79.559 33.442 79.2 33.777 C 78.841 34.112 78.405 34.279 77.89 34.279 Z M 95.338 33.507 C 91.616 33.507 88.84 32.436 87.009 30.294 C 85.525 28.571 84.591 26.022 84.208 22.647 C 84.029 21.127 83.939 18.094 83.939 13.546 C 83.939 11.871 83.975 10.518 84.047 9.489 C 84.119 8.4 84.226 7.64 84.37 7.209 C 84.669 6.335 85.208 5.899 85.985 5.899 C 87.087 5.899 87.637 6.91 87.637 8.932 L 87.637 19.47 C 87.637 26.722 90.174 30.348 95.248 30.348 C 100.023 30.348 102.411 24.245 102.411 12.038 C 102.411 11.583 102.411 10.997 102.411 10.279 C 102.399 9.561 102.393 9.082 102.393 8.843 C 102.393 8.101 102.525 7.449 102.788 6.886 C 103.123 6.168 103.62 5.809 104.278 5.809 C 105.474 5.809 106.073 6.629 106.073 8.268 C 106.073 8.759 106.079 9.501 106.091 10.494 C 106.091 11.487 106.091 12.229 106.091 12.72 C 106.091 26.578 102.506 33.507 95.338 33.507 Z M 124.508 34.064 C 123.479 34.064 122.898 33.502 122.767 32.376 L 122.264 28.445 C 122.096 27.045 122.013 25.735 122.013 24.514 C 122.013 24.179 122.034 23.611 122.076 22.809 C 122.117 22.007 122.138 21.438 122.138 21.103 C 122.138 18.518 121.66 17.226 120.702 17.226 C 119.362 17.226 118.081 18.022 116.861 19.613 C 115.76 21.061 114.898 22.892 114.276 25.106 C 114.252 25.573 114.198 26.16 114.114 26.866 C 114.043 27.464 114.006 28.044 114.006 28.607 C 114.006 28.966 114.043 29.504 114.114 30.222 C 114.186 30.94 114.222 31.479 114.222 31.838 C 114.222 32.377 114.057 32.813 113.728 33.148 C 113.399 33.483 112.977 33.651 112.463 33.651 C 111.936 33.651 111.511 33.483 111.188 33.148 C 110.865 32.813 110.703 32.377 110.703 31.838 C 110.703 31.479 110.665 30.94 110.587 30.222 C 110.509 29.504 110.47 28.966 110.47 28.607 C 110.47 27.374 110.557 25.666 110.73 23.482 C 110.904 21.298 110.991 19.589 110.991 18.357 C 110.991 17.974 110.97 17.405 110.928 16.651 C 110.886 15.898 110.865 15.329 110.865 14.946 C 110.865 14.431 111.036 14.01 111.377 13.681 C 111.718 13.351 112.14 13.187 112.642 13.187 C 113.743 13.187 114.348 13.965 114.455 15.52 L 114.509 17.621 C 116.52 14.94 118.584 13.6 120.702 13.6 C 122.617 13.6 123.952 14.443 124.705 16.131 C 125.22 17.256 125.501 18.919 125.549 21.121 L 125.549 22.934 L 125.531 24.604 C 125.531 25.597 125.66 26.881 125.917 28.454 C 126.174 30.028 126.303 31.305 126.303 32.287 C 126.303 32.813 126.133 33.241 125.791 33.57 C 125.45 33.899 125.023 34.064 124.508 34.064 Z M 133.409 10.063 C 132.835 10.063 132.338 9.86 131.919 9.453 C 131.501 9.046 131.291 8.556 131.291 7.981 C 131.291 7.407 131.501 6.916 131.919 6.509 C 132.338 6.102 132.835 5.899 133.409 5.899 C 133.984 5.899 134.478 6.102 134.891 6.509 C 135.303 6.916 135.51 7.407 135.51 7.981 C 135.51 8.556 135.303 9.046 134.891 9.453 C 134.478 9.86 133.984 10.063 133.409 10.063 Z M 134.217 24.639 C 134.217 25.358 134.238 26.432 134.28 27.862 C 134.322 29.292 134.343 30.366 134.343 31.084 C 134.343 31.611 134.181 32.042 133.858 32.376 C 133.535 32.712 133.11 32.879 132.584 32.879 C 132.069 32.879 131.647 32.712 131.318 32.376 C 130.989 32.042 130.824 31.611 130.824 31.084 C 130.824 30.366 130.804 29.292 130.762 27.862 C 130.72 26.432 130.699 25.358 130.699 24.639 C 130.699 23.515 130.759 22.112 130.878 20.43 C 130.998 18.749 131.058 17.345 131.058 16.221 C 131.058 15.682 131.222 15.245 131.552 14.91 C 131.881 14.575 132.303 14.407 132.817 14.407 C 133.332 14.407 133.753 14.575 134.083 14.91 C 134.412 15.245 134.576 15.682 134.576 16.221 C 134.576 17.345 134.516 18.749 134.397 20.43 C 134.277 22.112 134.217 23.515 134.217 24.639 Z" style="fill: rgb(255, 113, 21); text-wrap-mode: nowrap; stroke-width: 1;"/>
</svg>
