<?xml version="1.0" encoding="utf-8"?>
<svg xmlns="http://www.w3.org/2000/svg" width="24" height="24" focusable="false" viewBox="0 0 24 24">
  <path fill="none" d="M 7 19.496 L 10 19.496 C 10.276 19.496 10.5 19.273 10.5 18.996 L 10.5 14.996 C 10.5 14.72 10.724 14.496 11 14.496 L 13 14.496 C 13.276 14.496 13.5 14.72 13.5 14.996 L 13.5 18.996 C 13.5 19.273 13.724 19.496 14 19.496 L 17 19.496 C 17.276 19.496 17.5 19.273 17.5 18.996 L 17.5 12.496 L 18.953 12.496 C 19.334 12.529 19.608 12.137 19.445 11.79 C 19.423 11.743 19.393 11.699 19.357 11.66 L 12.354 4.65 C 12.159 4.455 11.841 4.455 11.646 4.65 L 4.643 11.66 C 4.381 11.939 4.518 12.397 4.89 12.485 C 4.942 12.497 4.995 12.501 5.047 12.496 L 6.5 12.496 L 6.5 18.996 C 6.5 19.273 6.724 19.496 7 19.496 Z" style="stroke: rgba(0, 0, 0, 0.8);"/>
</svg>