<?xml version="1.0" encoding="utf-8"?>
<svg xmlns="http://www.w3.org/2000/svg" viewBox="0 0 24 24" width="24px" height="24px" fill="currentColor">
  <path d="M 12.024 3.972 L 2.615 12.81 L 6.504 12.791 L 6.459 20.523 L 10.299 20.548 L 10.343 14.767 L 14.236 14.741 L 14.192 20.45 L 18.038 20.448 L 18.062 12.501 L 21.646 12.5 L 12.024 3.972 Z" style="fill: none; stroke-linejoin: round;"/>
  <path d="M 21.646 13 L 18.56 13.001 L 18.538 20.45 C 18.537 20.725 18.314 20.948 18.038 20.948 L 14.192 20.95 C 14.059 20.95 13.931 20.897 13.837 20.802 C 13.743 20.708 13.691 20.579 13.692 20.446 L 13.732 15.879 C 13.724 14.517 10.812 14.463 10.839 15.899 L 10.799 20.552 C 10.797 20.828 10.572 21.05 10.296 21.048 L 6.456 21.023 C 6.18 21.021 5.957 20.796 5.959 20.52 L 6.001 13.293 L 2.617 13.31 C 2.412 13.311 2.227 13.186 2.151 12.995 C 2.074 12.804 2.123 12.586 2.273 12.446 L 10.543 4.678 C 11.479 3.894 12.724 3.963 13.521 4.631 L 21.978 12.126 C 22.133 12.264 22.187 12.483 22.114 12.677 C 22.04 12.871 21.854 13 21.646 13 Z M 13.038 5.539 C 12.612 5.134 11.627 5.04 11.047 5.576 L 3.884 12.304 L 6.502 12.291 C 6.635 12.29 6.763 12.343 6.858 12.438 C 6.952 12.532 7.005 12.66 7.004 12.794 L 6.962 20.026 L 9.803 20.045 L 9.838 15.423 C 9.836 13.315 14.72 13.288 14.731 15.396 L 14.696 19.95 L 17.54 19.948 L 17.562 12.499 C 17.563 12.224 17.786 12.001 18.062 12.001 L 20.328 12 L 13.038 5.539 Z" style="fill: rgb(0, 0, 0);"/>
</svg>