<?xml version="1.0" encoding="utf-8"?>
<svg xmlns="http://www.w3.org/2000/svg" viewBox="0 0 24 24" height="24px" width="24px">
  <g transform="matrix(0.794312, 0, 0, 0.794312, 2.248307, 2.484342)" style="">
    <path style="stroke-linejoin: round; fill: rgb(43, 65, 98);" d="M 2.994 9.821 C 2.994 9.821 2.912 16.864 2.912 18.19 C 2.929 19.588 3.418 20.877 5.529 20.97 C 7.234 21.024 13.941 20.98 17.833 20.971 C 18.792 20.909 19.961 20.321 20.32 18.944 C 20.726 17.266 21.541 12.883 21.622 12.179 C 21.797 10.379 20.801 9.381 19.096 9.272 C 17.391 9.163 15.826 9.238 15.826 9.238 C 15.826 9.238 16.204 7.011 16.588 4.876 C 16.687 1.451 12.562 3.086 11.945 4.276 C 10.584 6.299 10.753 6.235 9.265 8.454 C 8.944 8.863 8.536 9.287 7.584 9.341 C 5.867 9.352 4.88 9.294 3.462 9.359 C 3.214 9.365 2.991 9.61 2.994 9.821 Z"/>
    <path style="fill: rgb(43, 65, 98); stroke-width: 1.58766px; stroke: rgb(255, 255, 255);" d="M 6.827 9.289 L 6.753 21.135"/>
  </g>
</svg>