<?xml version="1.0" encoding="utf-8"?>
<svg xmlns="http://www.w3.org/2000/svg" viewBox="0 0 24 24" width="20px" height="20px">
  <path d="M 7.109 19.228 L 7.216 10.29 C 6.092 10.282 5.899 10.236 4.546 10.306 C 4.546 10.306 4.474 15.962 4.474 17.146 C 4.474 18.331 4.788 19.177 6.311 19.226 C 6.491 19.231 7.11 19.232 7.109 19.228 Z M 8.125 19.216 C 8.126 19.218 16.635 19.203 16.635 19.203 C 16.635 19.203 18.086 19.251 18.448 17.752 C 18.811 16.253 19.44 12.724 19.512 12.095 C 19.585 11.466 19.392 10.307 17.869 10.21 C 16.346 10.112 14.532 10.21 14.532 10.21 C 14.532 10.21 14.915 7.908 15.258 6.001 C 15.339 3.7969999999999997 12.683 5.082 12.155 5.803 C 11.137 7.282 11.177 7.395 9.847 9.377 C 9.636 9.674 9.089 10.18 8.232 10.257 L 8.125 19.216 Z" style="fill: rgb(43, 65, 98);"/>
</svg>
