<?xml version="1.0" encoding="utf-8"?>
<svg xmlns="http://www.w3.org/2000/svg" viewBox="0 0 32 32" xmlns:bx="https://boxy-svg.com"><defs><bx:export><bx:file format="png" background="#fff0" width="32" height="32" path="logo-small-C-complete.png"/><bx:file format="svg" path="logo-small-C-complete.svg"/><bx:file format="jpeg"/><bx:file format="png" href="#object-0" background="#fff0"/></bx:export></defs><rect x="0.063" y="0.05" width="31.923" height="31.836" style="fill: rgb(255, 255, 255);" rx="6.045" ry="6.045" id="object-0"/><g transform="matrix(0.233675, 0, 0, 0.233675, -13.589067, -38.840976)" style=""><path style="fill: none; stroke-width: 11px; stroke: rgb(43, 65, 98);" d="M 132.703 281.325 C 171.379 281.325 195.551 239.457 176.214 205.962 C 166.594 189.3 148.303 179.594 129.112 180.97"/><g transform="matrix(0.977988, 0, 0, 0.977988, -24.419637, 20.737154)" style=""><path style="fill: none; stroke-linecap: round; stroke: rgb(255, 113, 21); stroke-linejoin: round; transform-origin: 154.554px 218.929px; stroke-width: 11.6343px;" d="M 186.765 259.522 C 164.475 272.54 138.436 266.592 123.022 249.88 C 99.355 262.232 117.787 252.436 94.877 264.394 C 106.303 227.118 96.87 257.302 109.561 218.001 C 109.518 217.169 109.608 216.329 109.604 215.482 C 109.434 181.512 141.738 156.764 174.493 165.767"/><path style="stroke-linecap: round; stroke-width: 6px; fill: none; stroke: rgb(255, 113, 21); transform-box: fill-box; transform-origin: 0.19941% 50.2038%;" d="M 161.857 240.498 C 183.861 240.498 197.614 216.678 186.612 197.62 C 181.27 188.367 171.214 182.866 160.541 183.358" transform="matrix(-0.000104, 1.000002, -0.999998, -0.000104, 0.000013, -0.000012)"/><path style="fill: none; stroke-linejoin: round; stroke-linecap: round; stroke-width: 6px; stroke: rgb(255, 113, 21);" d="M 174.298 194.091 L 163.805 200.805 L 179.543 201.248"/><ellipse style="fill: none; stroke-width: 9px; stroke: rgb(255, 113, 21);" cx="147.717" cy="196.788" rx="4.218" ry="4.218"/></g></g><path d="M 249.213 280.666 L 249.213 182.473 C 249.213 181.121 250.31 180.024 251.663 180.024 L 263.719 180.024 C 265.071 180.024 266.169 181.121 266.169 182.473 L 266.169 212.025 C 271.518 207.811 275.933 205.475 285.015 205.475 C 290.556 205.475 295.735 206.65 299.904 208.879 C 304.117 211.133 307.468 214.597 309.315 218.629 C 311.128 222.592 312.034 228.432 312.049 235.589 L 312.049 280.666 C 312.049 282.018 310.951 283.115 309.599 283.115 L 297.542 283.115 C 296.19 283.115 295.093 282.018 295.093 280.666 L 295.093 235.589 C 295.142 229.911 294.079 226.457 291.85 224.116 C 289.606 221.754 286.887 220.755 282.537 220.755 C 279.293 220.755 276.555 221.47 273.699 223.199 C 270.847 224.811 269.167 226.771 267.986 229.578 C 266.761 232.469 266.154 236.354 266.169 241.752 L 266.169 280.666 C 266.169 282.018 265.071 283.115 263.719 283.115 L 251.663 283.115 C 250.31 283.115 249.213 282.018 249.213 280.666 Z M 261.27 278.216 L 261.27 241.752 C 261.284 235.986 262.014 231.116 263.469 227.672 C 264.964 224.135 267.776 221.068 271.215 218.976 C 274.659 216.997 278.642 215.856 282.537 215.856 C 287.739 215.856 292.413 217.6 295.397 220.735 C 298.395 223.885 299.943 229.211 299.992 235.589 L 299.992 278.216 L 307.149 278.216 L 307.149 235.589 C 307.164 228.814 306.395 224.027 304.857 220.667 C 303.353 217.379 301.148 215.101 297.591 213.2 C 293.995 211.275 290.017 210.374 285.015 210.374 C 276.952 210.374 270.784 213.098 265.576 219.305 C 264.905 220.079 263.827 220.353 262.867 220 C 261.907 219.643 261.27 218.727 261.27 217.703 L 261.27 184.923 L 254.112 184.923 L 254.112 278.216 L 261.27 278.216 Z M 372.67 276.359 C 369.147 278.961 366.683 280.553 362.338 282.224 C 357.987 283.845 353.122 284.722 348.174 284.722 C 339.993 284.722 333.085 282.517 328.514 278.358 C 323.939 274.199 321.416 268.335 321.416 261.912 C 321.416 258.13 322.395 254.358 324.095 251.188 C 325.839 248.077 328.304 245.343 331.091 243.408 C 333.84 241.566 337.122 240.072 340.517 239.117 C 342.991 238.465 346.734 237.833 351.569 237.245 C 361.216 236.094 366.531 235.065 370.955 233.728 C 370.97 233.066 370.98 232.792 370.98 232.375 C 370.98 227.849 370.313 225.301 368.388 223.827 C 365.767 221.357 362.004 220.353 356.282 220.353 C 350.893 220.353 347.43 221.078 345.171 222.861 C 342.81 224.463 341.276 227.3 340.101 232.042 C 339.792 233.247 338.631 234.031 337.401 233.86 L 325.609 232.253 C 324.933 232.165 324.326 231.792 323.934 231.239 C 323.542 230.68 323.4 229.985 323.542 229.318 C 324.688 224.042 326.658 219.437 329.308 216.086 C 331.993 212.691 336.123 209.908 341.046 208.135 C 345.911 206.381 351.716 205.475 358.021 205.475 C 364.273 205.475 369.637 206.283 373.689 207.777 C 377.716 209.32 381.023 211.486 383.09 213.901 C 385.045 216.341 386.554 219.643 387.352 223.195 C 387.774 225.419 387.999 229.358 387.999 234.786 L 387.999 250.86 C 387.999 262.025 388.239 268.908 388.739 271.71 C 389.194 274.473 390.076 276.933 391.512 279.475 C 391.933 280.23 391.923 281.156 391.482 281.905 C 391.041 282.655 390.238 283.115 389.371 283.115 L 376.775 283.115 C 375.849 283.115 374.997 282.591 374.585 281.763 C 373.248 279.034 373.145 278.319 372.67 276.359 Z M 375.276 269.618 C 376.119 269.951 376.707 270.73 376.8 271.632 C 377.118 274.787 377.549 276.296 378.343 278.216 L 385.525 278.216 C 384.795 276.359 384.476 275.718 383.908 272.543 C 383.379 269.408 383.1 262.113 383.1 250.86 L 383.1 234.786 C 383.1 229.495 382.923 226.031 382.546 224.145 C 381.914 221.112 380.925 218.918 379.308 217.017 C 377.804 215.101 375.526 213.676 371.964 212.363 C 368.427 210.996 363.92 210.374 358.021 210.374 C 352.094 210.374 347.136 211.143 342.712 212.74 C 338.347 214.317 335.373 216.316 333.149 219.123 C 330.89 221.98 329.925 224.214 328.95 227.765 L 335.985 228.726 C 337.445 224.38 339.229 221.284 342.271 218.913 C 345.411 216.718 350.325 215.454 356.282 215.454 C 362.705 215.454 368.089 217.174 371.631 220.152 C 374.262 222.7 375.879 227.08 375.879 232.375 C 375.879 232.846 375.854 233.928 375.81 235.589 C 375.781 236.603 375.129 237.5 374.169 237.833 C 369.397 239.484 361.975 240.929 352.152 242.105 C 347.43 242.678 344.035 243.247 341.776 243.849 C 338.748 244.672 336.23 245.819 333.845 247.465 C 331.503 249.008 329.808 250.899 328.387 253.549 C 326.917 256.131 326.315 258.723 326.315 261.912 C 326.315 267.365 327.985 271.255 331.807 274.733 C 335.628 278.206 340.733 279.823 348.174 279.823 C 352.696 279.823 356.699 279.142 360.603 277.638 C 364.523 276.183 368.456 273.714 372.777 270.025 C 373.468 269.437 374.428 269.28 375.276 269.618 Z M 375.81 249.385 C 375.795 254.892 375.021 259.448 373.63 262.505 C 371.709 266.346 368.55 269.662 364.65 271.916 C 360.721 274.067 355.993 275.277 351.055 275.277 C 346.014 275.277 341.57 273.929 338.758 271.45 C 335.946 268.976 334.276 265.297 334.276 261.579 C 334.276 259.134 335.079 256.557 336.343 254.519 C 337.705 252.52 339.831 250.757 342.178 249.684 C 344.446 248.719 348.267 247.827 353.323 247.097 C 361.97 245.868 368.246 244.427 372.435 242.698 C 373.189 242.389 374.051 242.477 374.727 242.933 C 375.403 243.389 375.81 244.148 375.81 244.966 L 375.81 249.385 Z M 370.911 248.425 C 366.58 249.772 362.872 250.678 354.019 251.947 C 349.159 252.638 345.97 253.353 344.133 254.176 C 342.369 254.892 341.321 255.744 340.448 257.184 C 339.483 258.581 339.175 259.82 339.175 261.579 C 339.175 264.288 339.939 265.964 341.992 267.776 C 344.044 269.579 346.719 270.378 351.055 270.378 C 355.405 270.378 358.938 269.555 362.249 267.644 C 365.581 265.836 367.731 263.592 369.211 260.383 C 370.401 257.993 370.926 254.505 370.911 249.385 L 370.911 248.425 Z M 432.972 269.486 L 434.716 280.137 C 434.932 281.43 434.084 282.66 432.806 282.929 C 429.303 283.659 426.011 284.051 423.189 284.051 C 418.569 284.051 414.567 283.174 411.789 281.655 C 409.094 280.043 406.885 277.648 405.675 275.046 C 404.592 272.43 403.999 267.193 403.994 259.835 L 403.994 221.362 L 397.606 221.362 C 396.254 221.362 395.156 220.265 395.156 218.913 L 395.156 209.531 C 395.156 208.179 396.254 207.082 397.606 207.082 L 403.994 207.082 L 403.994 191.919 C 403.994 191.062 404.445 190.263 405.18 189.822 L 417.173 182.586 C 417.927 182.131 418.873 182.116 419.642 182.552 C 420.411 182.983 420.886 183.801 420.886 184.683 L 420.886 207.082 L 430.557 207.082 C 431.909 207.082 433.007 208.179 433.007 209.531 L 433.007 218.913 C 433.007 220.265 431.909 221.362 430.557 221.362 L 420.886 221.362 L 420.886 260.506 C 420.881 263.823 421.048 265.527 421.322 266.164 C 421.597 266.796 421.744 267.041 422.415 267.384 C 422.998 267.815 423.733 267.904 425.266 267.904 C 426.496 267.904 428.088 267.766 430.209 267.458 C 431.532 267.267 432.757 268.173 432.972 269.486 Z M 425.266 272.803 C 423.228 272.803 421.22 272.308 419.877 271.578 C 418.638 270.76 417.398 269.437 416.825 268.104 C 416.252 266.777 415.992 264.058 415.987 260.506 L 415.987 218.913 C 415.987 217.561 417.085 216.463 418.437 216.463 L 428.108 216.463 L 428.108 211.981 L 418.437 211.981 C 417.085 211.981 415.987 210.883 415.987 209.531 L 415.987 189.024 L 408.893 193.3 L 408.893 209.531 C 408.893 210.883 407.796 211.981 406.444 211.981 L 400.056 211.981 L 400.056 216.463 L 406.444 216.463 C 407.796 216.463 408.893 217.561 408.893 218.913 L 408.893 259.835 C 408.889 266.943 409.276 271.196 410.162 273.087 C 410.922 274.997 412.102 276.247 414.229 277.403 C 416.276 278.647 419.059 279.152 423.189 279.152 C 425.727 279.152 427.182 278.971 429.499 278.579 L 428.519 272.607 C 427.27 272.734 426.711 272.803 425.266 272.803 Z" style="fill: none;"/><path d="M 249.213 280.666 L 249.213 182.473 C 249.213 181.121 250.31 180.024 251.663 180.024 L 263.719 180.024 C 265.071 180.024 266.169 181.121 266.169 182.473 L 266.169 212.025 C 271.518 207.811 275.933 205.475 285.015 205.475 C 290.556 205.475 295.735 206.65 299.904 208.879 C 304.117 211.133 307.468 214.597 309.315 218.629 C 311.128 222.592 312.034 228.432 312.049 235.589 L 312.049 280.666 C 312.049 282.018 310.951 283.115 309.599 283.115 L 297.542 283.115 C 296.19 283.115 295.093 282.018 295.093 280.666 L 295.093 235.589 C 295.142 229.911 294.079 226.457 291.85 224.116 C 289.606 221.754 286.887 220.755 282.537 220.755 C 279.293 220.755 276.555 221.47 273.699 223.199 C 270.847 224.811 269.167 226.771 267.986 229.578 C 266.761 232.469 266.154 236.354 266.169 241.752 L 266.169 280.666 C 266.169 282.018 265.071 283.115 263.719 283.115 L 251.663 283.115 C 250.31 283.115 249.213 282.018 249.213 280.666 Z M 261.27 278.216 L 261.27 241.752 C 261.284 235.986 262.014 231.116 263.469 227.672 C 264.964 224.135 267.776 221.068 271.215 218.976 C 274.659 216.997 278.642 215.856 282.537 215.856 C 287.739 215.856 292.413 217.6 295.397 220.735 C 298.395 223.885 299.943 229.211 299.992 235.589 L 299.992 278.216 L 307.149 278.216 L 307.149 235.589 C 307.164 228.814 306.395 224.027 304.857 220.667 C 303.353 217.379 301.148 215.101 297.591 213.2 C 293.995 211.275 290.017 210.374 285.015 210.374 C 276.952 210.374 270.784 213.098 265.576 219.305 C 264.905 220.079 263.827 220.353 262.867 220 C 261.907 219.643 261.27 218.727 261.27 217.703 L 261.27 184.923 L 254.112 184.923 L 254.112 278.216 L 261.27 278.216 Z M 372.67 276.359 C 369.147 278.961 366.683 280.553 362.338 282.224 C 357.987 283.845 353.122 284.722 348.174 284.722 C 339.993 284.722 333.085 282.517 328.514 278.358 C 323.939 274.199 321.416 268.335 321.416 261.912 C 321.416 258.13 322.395 254.358 324.095 251.188 C 325.839 248.077 328.304 245.343 331.091 243.408 C 333.84 241.566 337.122 240.072 340.517 239.117 C 342.991 238.465 346.734 237.833 351.569 237.245 C 361.216 236.094 366.531 235.065 370.955 233.728 C 370.97 233.066 370.98 232.792 370.98 232.375 C 370.98 227.849 370.313 225.301 368.388 223.827 C 365.767 221.357 362.004 220.353 356.282 220.353 C 350.893 220.353 347.43 221.078 345.171 222.861 C 342.81 224.463 341.276 227.3 340.101 232.042 C 339.792 233.247 338.631 234.031 337.401 233.86 L 325.609 232.253 C 324.933 232.165 324.326 231.792 323.934 231.239 C 323.542 230.68 323.4 229.985 323.542 229.318 C 324.688 224.042 326.658 219.437 329.308 216.086 C 331.993 212.691 336.123 209.908 341.046 208.135 C 345.911 206.381 351.716 205.475 358.021 205.475 C 364.273 205.475 369.637 206.283 373.689 207.777 C 377.716 209.32 381.023 211.486 383.09 213.901 C 385.045 216.341 386.554 219.643 387.352 223.195 C 387.774 225.419 387.999 229.358 387.999 234.786 L 387.999 250.86 C 387.999 262.025 388.239 268.908 388.739 271.71 C 389.194 274.473 390.076 276.933 391.512 279.475 C 391.933 280.23 391.923 281.156 391.482 281.905 C 391.041 282.655 390.238 283.115 389.371 283.115 L 376.775 283.115 C 375.849 283.115 374.997 282.591 374.585 281.763 C 373.248 279.034 373.145 278.319 372.67 276.359 Z M 375.276 269.618 C 376.119 269.951 376.707 270.73 376.8 271.632 C 377.118 274.787 377.549 276.296 378.343 278.216 L 385.525 278.216 C 384.795 276.359 384.476 275.718 383.908 272.543 C 383.379 269.408 383.1 262.113 383.1 250.86 L 383.1 234.786 C 383.1 229.495 382.923 226.031 382.546 224.145 C 381.914 221.112 380.925 218.918 379.308 217.017 C 377.804 215.101 375.526 213.676 371.964 212.363 C 368.427 210.996 363.92 210.374 358.021 210.374 C 352.094 210.374 347.136 211.143 342.712 212.74 C 338.347 214.317 335.373 216.316 333.149 219.123 C 330.89 221.98 329.925 224.214 328.95 227.765 L 335.985 228.726 C 337.445 224.38 339.229 221.284 342.271 218.913 C 345.411 216.718 350.325 215.454 356.282 215.454 C 362.705 215.454 368.089 217.174 371.631 220.152 C 374.262 222.7 375.879 227.08 375.879 232.375 C 375.879 232.846 375.854 233.928 375.81 235.589 C 375.781 236.603 375.129 237.5 374.169 237.833 C 369.397 239.484 361.975 240.929 352.152 242.105 C 347.43 242.678 344.035 243.247 341.776 243.849 C 338.748 244.672 336.23 245.819 333.845 247.465 C 331.503 249.008 329.808 250.899 328.387 253.549 C 326.917 256.131 326.315 258.723 326.315 261.912 C 326.315 267.365 327.985 271.255 331.807 274.733 C 335.628 278.206 340.733 279.823 348.174 279.823 C 352.696 279.823 356.699 279.142 360.603 277.638 C 364.523 276.183 368.456 273.714 372.777 270.025 C 373.468 269.437 374.428 269.28 375.276 269.618 Z M 375.81 249.385 C 375.795 254.892 375.021 259.448 373.63 262.505 C 371.709 266.346 368.55 269.662 364.65 271.916 C 360.721 274.067 355.993 275.277 351.055 275.277 C 346.014 275.277 341.57 273.929 338.758 271.45 C 335.946 268.976 334.276 265.297 334.276 261.579 C 334.276 259.134 335.079 256.557 336.343 254.519 C 337.705 252.52 339.831 250.757 342.178 249.684 C 344.446 248.719 348.267 247.827 353.323 247.097 C 361.97 245.868 368.246 244.427 372.435 242.698 C 373.189 242.389 374.051 242.477 374.727 242.933 C 375.403 243.389 375.81 244.148 375.81 244.966 L 375.81 249.385 Z M 370.911 248.425 C 366.58 249.772 362.872 250.678 354.019 251.947 C 349.159 252.638 345.97 253.353 344.133 254.176 C 342.369 254.892 341.321 255.744 340.448 257.184 C 339.483 258.581 339.175 259.82 339.175 261.579 C 339.175 264.288 339.939 265.964 341.992 267.776 C 344.044 269.579 346.719 270.378 351.055 270.378 C 355.405 270.378 358.938 269.555 362.249 267.644 C 365.581 265.836 367.731 263.592 369.211 260.383 C 370.401 257.993 370.926 254.505 370.911 249.385 L 370.911 248.425 Z M 432.972 269.486 L 434.716 280.137 C 434.932 281.43 434.084 282.66 432.806 282.929 C 429.303 283.659 426.011 284.051 423.189 284.051 C 418.569 284.051 414.567 283.174 411.789 281.655 C 409.094 280.043 406.885 277.648 405.675 275.046 C 404.592 272.43 403.999 267.193 403.994 259.835 L 403.994 221.362 L 397.606 221.362 C 396.254 221.362 395.156 220.265 395.156 218.913 L 395.156 209.531 C 395.156 208.179 396.254 207.082 397.606 207.082 L 403.994 207.082 L 403.994 191.919 C 403.994 191.062 404.445 190.263 405.18 189.822 L 417.173 182.586 C 417.927 182.131 418.873 182.116 419.642 182.552 C 420.411 182.983 420.886 183.801 420.886 184.683 L 420.886 207.082 L 430.557 207.082 C 431.909 207.082 433.007 208.179 433.007 209.531 L 433.007 218.913 C 433.007 220.265 431.909 221.362 430.557 221.362 L 420.886 221.362 L 420.886 260.506 C 420.881 263.823 421.048 265.527 421.322 266.164 C 421.597 266.796 421.744 267.041 422.415 267.384 C 422.998 267.815 423.733 267.904 425.266 267.904 C 426.496 267.904 428.088 267.766 430.209 267.458 C 431.532 267.267 432.757 268.173 432.972 269.486 Z M 425.266 272.803 C 423.228 272.803 421.22 272.308 419.877 271.578 C 418.638 270.76 417.398 269.437 416.825 268.104 C 416.252 266.777 415.992 264.058 415.987 260.506 L 415.987 218.913 C 415.987 217.561 417.085 216.463 418.437 216.463 L 428.108 216.463 L 428.108 211.981 L 418.437 211.981 C 417.085 211.981 415.987 210.883 415.987 209.531 L 415.987 189.024 L 408.893 193.3 L 408.893 209.531 C 408.893 210.883 407.796 211.981 406.444 211.981 L 400.056 211.981 L 400.056 216.463 L 406.444 216.463 C 407.796 216.463 408.893 217.561 408.893 218.913 L 408.893 259.835 C 408.889 266.943 409.276 271.196 410.162 273.087 C 410.922 274.997 412.102 276.247 414.229 277.403 C 416.276 278.647 419.059 279.152 423.189 279.152 C 425.727 279.152 427.182 278.971 429.499 278.579 L 428.519 272.607 C 427.27 272.734 426.711 272.803 425.266 272.803 Z" style="fill: none;"/><path d="M 249.213 280.666 L 249.213 182.473 C 249.213 181.121 250.31 180.024 251.663 180.024 L 263.719 180.024 C 265.071 180.024 266.169 181.121 266.169 182.473 L 266.169 212.025 C 271.518 207.811 275.933 205.475 285.015 205.475 C 290.556 205.475 295.735 206.65 299.904 208.879 C 304.117 211.133 307.468 214.597 309.315 218.629 C 311.128 222.592 312.034 228.432 312.049 235.589 L 312.049 280.666 C 312.049 282.018 310.951 283.115 309.599 283.115 L 297.542 283.115 C 296.19 283.115 295.093 282.018 295.093 280.666 L 295.093 235.589 C 295.142 229.911 294.079 226.457 291.85 224.116 C 289.606 221.754 286.887 220.755 282.537 220.755 C 279.293 220.755 276.555 221.47 273.699 223.199 C 270.847 224.811 269.167 226.771 267.986 229.578 C 266.761 232.469 266.154 236.354 266.169 241.752 L 266.169 280.666 C 266.169 282.018 265.071 283.115 263.719 283.115 L 251.663 283.115 C 250.31 283.115 249.213 282.018 249.213 280.666 Z M 261.27 278.216 L 261.27 241.752 C 261.284 235.986 262.014 231.116 263.469 227.672 C 264.964 224.135 267.776 221.068 271.215 218.976 C 274.659 216.997 278.642 215.856 282.537 215.856 C 287.739 215.856 292.413 217.6 295.397 220.735 C 298.395 223.885 299.943 229.211 299.992 235.589 L 299.992 278.216 L 307.149 278.216 L 307.149 235.589 C 307.164 228.814 306.395 224.027 304.857 220.667 C 303.353 217.379 301.148 215.101 297.591 213.2 C 293.995 211.275 290.017 210.374 285.015 210.374 C 276.952 210.374 270.784 213.098 265.576 219.305 C 264.905 220.079 263.827 220.353 262.867 220 C 261.907 219.643 261.27 218.727 261.27 217.703 L 261.27 184.923 L 254.112 184.923 L 254.112 278.216 L 261.27 278.216 Z M 372.67 276.359 C 369.147 278.961 366.683 280.553 362.338 282.224 C 357.987 283.845 353.122 284.722 348.174 284.722 C 339.993 284.722 333.085 282.517 328.514 278.358 C 323.939 274.199 321.416 268.335 321.416 261.912 C 321.416 258.13 322.395 254.358 324.095 251.188 C 325.839 248.077 328.304 245.343 331.091 243.408 C 333.84 241.566 337.122 240.072 340.517 239.117 C 342.991 238.465 346.734 237.833 351.569 237.245 C 361.216 236.094 366.531 235.065 370.955 233.728 C 370.97 233.066 370.98 232.792 370.98 232.375 C 370.98 227.849 370.313 225.301 368.388 223.827 C 365.767 221.357 362.004 220.353 356.282 220.353 C 350.893 220.353 347.43 221.078 345.171 222.861 C 342.81 224.463 341.276 227.3 340.101 232.042 C 339.792 233.247 338.631 234.031 337.401 233.86 L 325.609 232.253 C 324.933 232.165 324.326 231.792 323.934 231.239 C 323.542 230.68 323.4 229.985 323.542 229.318 C 324.688 224.042 326.658 219.437 329.308 216.086 C 331.993 212.691 336.123 209.908 341.046 208.135 C 345.911 206.381 351.716 205.475 358.021 205.475 C 364.273 205.475 369.637 206.283 373.689 207.777 C 377.716 209.32 381.023 211.486 383.09 213.901 C 385.045 216.341 386.554 219.643 387.352 223.195 C 387.774 225.419 387.999 229.358 387.999 234.786 L 387.999 250.86 C 387.999 262.025 388.239 268.908 388.739 271.71 C 389.194 274.473 390.076 276.933 391.512 279.475 C 391.933 280.23 391.923 281.156 391.482 281.905 C 391.041 282.655 390.238 283.115 389.371 283.115 L 376.775 283.115 C 375.849 283.115 374.997 282.591 374.585 281.763 C 373.248 279.034 373.145 278.319 372.67 276.359 Z M 375.276 269.618 C 376.119 269.951 376.707 270.73 376.8 271.632 C 377.118 274.787 377.549 276.296 378.343 278.216 L 385.525 278.216 C 384.795 276.359 384.476 275.718 383.908 272.543 C 383.379 269.408 383.1 262.113 383.1 250.86 L 383.1 234.786 C 383.1 229.495 382.923 226.031 382.546 224.145 C 381.914 221.112 380.925 218.918 379.308 217.017 C 377.804 215.101 375.526 213.676 371.964 212.363 C 368.427 210.996 363.92 210.374 358.021 210.374 C 352.094 210.374 347.136 211.143 342.712 212.74 C 338.347 214.317 335.373 216.316 333.149 219.123 C 330.89 221.98 329.925 224.214 328.95 227.765 L 335.985 228.726 C 337.445 224.38 339.229 221.284 342.271 218.913 C 345.411 216.718 350.325 215.454 356.282 215.454 C 362.705 215.454 368.089 217.174 371.631 220.152 C 374.262 222.7 375.879 227.08 375.879 232.375 C 375.879 232.846 375.854 233.928 375.81 235.589 C 375.781 236.603 375.129 237.5 374.169 237.833 C 369.397 239.484 361.975 240.929 352.152 242.105 C 347.43 242.678 344.035 243.247 341.776 243.849 C 338.748 244.672 336.23 245.819 333.845 247.465 C 331.503 249.008 329.808 250.899 328.387 253.549 C 326.917 256.131 326.315 258.723 326.315 261.912 C 326.315 267.365 327.985 271.255 331.807 274.733 C 335.628 278.206 340.733 279.823 348.174 279.823 C 352.696 279.823 356.699 279.142 360.603 277.638 C 364.523 276.183 368.456 273.714 372.777 270.025 C 373.468 269.437 374.428 269.28 375.276 269.618 Z M 375.81 249.385 C 375.795 254.892 375.021 259.448 373.63 262.505 C 371.709 266.346 368.55 269.662 364.65 271.916 C 360.721 274.067 355.993 275.277 351.055 275.277 C 346.014 275.277 341.57 273.929 338.758 271.45 C 335.946 268.976 334.276 265.297 334.276 261.579 C 334.276 259.134 335.079 256.557 336.343 254.519 C 337.705 252.52 339.831 250.757 342.178 249.684 C 344.446 248.719 348.267 247.827 353.323 247.097 C 361.97 245.868 368.246 244.427 372.435 242.698 C 373.189 242.389 374.051 242.477 374.727 242.933 C 375.403 243.389 375.81 244.148 375.81 244.966 L 375.81 249.385 Z M 370.911 248.425 C 366.58 249.772 362.872 250.678 354.019 251.947 C 349.159 252.638 345.97 253.353 344.133 254.176 C 342.369 254.892 341.321 255.744 340.448 257.184 C 339.483 258.581 339.175 259.82 339.175 261.579 C 339.175 264.288 339.939 265.964 341.992 267.776 C 344.044 269.579 346.719 270.378 351.055 270.378 C 355.405 270.378 358.938 269.555 362.249 267.644 C 365.581 265.836 367.731 263.592 369.211 260.383 C 370.401 257.993 370.926 254.505 370.911 249.385 L 370.911 248.425 Z M 432.972 269.486 L 434.716 280.137 C 434.932 281.43 434.084 282.66 432.806 282.929 C 429.303 283.659 426.011 284.051 423.189 284.051 C 418.569 284.051 414.567 283.174 411.789 281.655 C 409.094 280.043 406.885 277.648 405.675 275.046 C 404.592 272.43 403.999 267.193 403.994 259.835 L 403.994 221.362 L 397.606 221.362 C 396.254 221.362 395.156 220.265 395.156 218.913 L 395.156 209.531 C 395.156 208.179 396.254 207.082 397.606 207.082 L 403.994 207.082 L 403.994 191.919 C 403.994 191.062 404.445 190.263 405.18 189.822 L 417.173 182.586 C 417.927 182.131 418.873 182.116 419.642 182.552 C 420.411 182.983 420.886 183.801 420.886 184.683 L 420.886 207.082 L 430.557 207.082 C 431.909 207.082 433.007 208.179 433.007 209.531 L 433.007 218.913 C 433.007 220.265 431.909 221.362 430.557 221.362 L 420.886 221.362 L 420.886 260.506 C 420.881 263.823 421.048 265.527 421.322 266.164 C 421.597 266.796 421.744 267.041 422.415 267.384 C 422.998 267.815 423.733 267.904 425.266 267.904 C 426.496 267.904 428.088 267.766 430.209 267.458 C 431.532 267.267 432.757 268.173 432.972 269.486 Z M 425.266 272.803 C 423.228 272.803 421.22 272.308 419.877 271.578 C 418.638 270.76 417.398 269.437 416.825 268.104 C 416.252 266.777 415.992 264.058 415.987 260.506 L 415.987 218.913 C 415.987 217.561 417.085 216.463 418.437 216.463 L 428.108 216.463 L 428.108 211.981 L 418.437 211.981 C 417.085 211.981 415.987 210.883 415.987 209.531 L 415.987 189.024 L 408.893 193.3 L 408.893 209.531 C 408.893 210.883 407.796 211.981 406.444 211.981 L 400.056 211.981 L 400.056 216.463 L 406.444 216.463 C 407.796 216.463 408.893 217.561 408.893 218.913 L 408.893 259.835 C 408.889 266.943 409.276 271.196 410.162 273.087 C 410.922 274.997 412.102 276.247 414.229 277.403 C 416.276 278.647 419.059 279.152 423.189 279.152 C 425.727 279.152 427.182 278.971 429.499 278.579 L 428.519 272.607 C 427.27 272.734 426.711 272.803 425.266 272.803 Z" style="fill: none;"/><path style="fill: rgb(51, 51, 51); stroke-linecap: round; stroke-linejoin: round; text-wrap-mode: nowrap;"/></svg>
