<?xml version="1.0" encoding="utf-8"?>
<svg xmlns="http://www.w3.org/2000/svg" viewBox="94.614 184.497 311.824 130.48" height="40px">
  <g transform="matrix(1, 0, 0, 1, 0, 31.514064)">
    <path style="fill: none; stroke-linecap: round; stroke-width: 10px; stroke: rgb(255, 113, 21); transform-origin: 153.432px 220.051px;" d="M 185.643 260.644 C 163.353 273.662 137.314 267.714 121.9 251.002 C 113.139 259.568 120.215 252.375 108.661 263.623 C 108.257 245.275 108.288 232.161 108.439 219.123 C 108.396 218.291 108.486 217.451 108.482 216.604 C 108.312 182.634 140.616 157.886 173.371 166.889"/>
    <path style="stroke-linecap: round; stroke-width: 6px; fill: none; stroke: rgb(255, 113, 21); transform-box: fill-box; transform-origin: 0.19941% 50.2038%;" d="M 160.735 241.62 C 182.739 241.62 196.492 217.8 185.49 198.743 C 180.148 189.49 170.092 183.989 159.419 184.481" transform="matrix(-0.000104, 1.000002, -0.999998, -0.000104, 0.000004, 0.000013)"/>
    <path style="fill: none; stroke-linejoin: round; stroke-linecap: round; stroke-width: 6px; stroke: rgb(255, 113, 21);" d="M 173.176 195.213 L 162.683 201.927 L 178.421 202.37"/>
    <ellipse style="fill: none; stroke-width: 9px; stroke: rgb(255, 113, 21);" cx="146.595" cy="197.911" rx="4.218" ry="4.218"/>
  </g>
  <path d="M 202.879 299.252 L 202.879 201.06 C 203.124 192.56 215.17 193.912 214.935 201.06 L 214.935 236.289 C 220.559 229.769 227.658 226.511 236.232 226.511 C 241.503 226.511 246.079 227.549 249.964 229.627 C 253.849 231.704 256.626 234.575 258.302 238.234 C 259.977 241.894 260.815 247.209 260.815 254.176 L 260.815 299.252 C 261.295 306.674 249.239 306.674 248.759 299.252 L 248.759 254.176 C 248.759 248.145 247.45 243.76 244.839 241.012 C 242.228 238.264 238.529 236.892 233.753 236.892 C 230.181 236.892 226.825 237.818 223.675 239.675 C 220.525 241.526 218.281 244.04 216.944 247.209 C 215.606 250.379 214.935 254.759 214.935 260.339 L 214.935 299.252 C 215.856 304.837 204.001 307.145 202.879 299.252 Z M 325.581 290.478 C 321.118 294.275 316.816 296.955 312.687 298.517 C 308.557 300.08 304.128 300.859 299.39 300.859 C 291.576 300.859 285.575 298.948 281.377 295.132 C 277.178 291.316 275.081 286.436 275.081 280.499 C 275.081 277.015 275.875 273.831 277.457 270.955 C 279.04 268.074 281.117 265.762 283.684 264.023 C 286.251 262.279 289.142 260.961 292.36 260.069 C 294.727 259.447 298.298 258.845 303.075 258.262 C 312.809 257.101 319.976 255.714 324.577 254.107 C 324.621 252.456 324.645 251.408 324.645 250.962 C 324.645 246.048 323.504 242.589 321.226 240.576 C 318.144 237.852 313.568 236.49 307.498 236.49 C 301.825 236.49 297.637 237.485 294.937 239.474 C 292.238 241.458 290.239 244.975 288.946 250.021 C 286.574 257.424 275.743 252.819 277.154 248.414 C 278.226 243.368 279.99 239.292 282.445 236.191 C 284.899 233.09 288.451 230.699 293.095 229.024 C 297.739 227.348 303.119 226.511 309.238 226.511 C 315.312 226.511 320.246 227.226 324.043 228.657 C 327.839 230.082 330.627 231.88 332.415 234.046 C 334.203 236.216 335.453 238.949 336.163 242.251 C 336.565 244.304 336.766 248.013 336.766 253.372 L 336.766 269.446 C 336.766 280.655 337.025 287.744 337.54 290.713 C 338.054 293.682 339.068 296.528 340.587 299.252 C 342.502 304.999 329.907 304.999 327.991 299.252 C 326.742 296.749 325.939 293.824 325.581 290.478 Z M 324.577 263.553 C 320.202 265.341 313.637 266.86 304.887 268.109 C 299.929 268.819 296.422 269.623 294.369 270.519 C 292.316 271.411 290.729 272.719 289.612 274.438 C 288.5 276.158 287.941 278.064 287.941 280.165 C 287.941 283.379 289.156 286.059 291.591 288.2 C 294.026 290.341 297.583 291.414 302.271 291.414 C 306.915 291.414 311.045 290.4 314.666 288.366 C 318.281 286.333 320.937 283.556 322.637 280.028 C 323.93 277.304 324.577 273.287 324.577 267.972 L 324.577 263.553 Z M 381.773 288.469 C 389.475 287.583 388.098 298.591 383.517 299.12 C 380.122 299.83 377.085 300.188 374.405 300.188 C 370.03 300.188 366.64 299.497 364.225 298.116 C 361.814 296.729 360.119 294.912 359.135 292.653 C 358.15 290.4 357.66 285.657 357.66 278.421 L 357.66 237.499 L 348.822 237.499 C 344.58 238.298 342.189 229.21 348.822 228.118 L 357.66 228.118 L 357.807 215.929 C 357.817 215.258 369.888 201.937 369.677 215.924 L 369.653 228.118 L 381.773 228.118 C 386.178 227.589 389.176 236.613 381.773 237.499 L 369.653 237.499 L 369.653 279.093 C 369.653 282.527 369.864 284.736 370.29 285.721 C 370.716 286.706 371.407 287.485 372.362 288.068 C 373.322 288.651 374.694 288.94 376.482 288.94 C 377.82 288.94 379.583 288.783 381.773 288.469 Z" style="stroke-linecap: round; stroke-linejoin: round; text-wrap-mode: nowrap; fill: rgb(255, 113, 21);"/>
  <path d="M 243.523 220.534 L 243.523 200.491 C 243.523 200.215 243.747 199.991 244.023 199.991 L 246.484 199.991 C 246.76 199.991 246.984 200.215 246.984 200.491 L 246.984 206.523 C 248.076 205.663 248.977 205.186 250.831 205.186 C 251.962 205.186 253.019 205.426 253.87 205.881 C 254.73 206.341 255.414 207.048 255.791 207.871 C 256.161 208.68 256.346 209.872 256.349 211.333 L 256.349 220.534 C 256.349 220.81 256.125 221.034 255.849 221.034 L 253.388 221.034 C 253.112 221.034 252.888 220.81 252.888 220.534 L 252.888 211.333 C 252.898 210.174 252.681 209.469 252.226 208.991 C 251.768 208.509 251.213 208.305 250.325 208.305 C 249.663 208.305 249.104 208.451 248.521 208.804 C 247.939 209.133 247.596 209.533 247.355 210.106 C 247.105 210.696 246.981 211.489 246.984 212.591 L 246.984 220.534 C 246.984 220.81 246.76 221.034 246.484 221.034 L 244.023 221.034 C 243.747 221.034 243.523 220.81 243.523 220.534 Z M 245.984 220.034 L 245.984 212.591 C 245.987 211.414 246.136 210.42 246.433 209.717 C 246.738 208.995 247.312 208.369 248.014 207.942 C 248.717 207.538 249.53 207.305 250.325 207.305 C 251.387 207.305 252.341 207.661 252.95 208.301 C 253.562 208.944 253.878 210.031 253.888 211.333 L 253.888 220.034 L 255.349 220.034 L 255.349 211.333 C 255.352 209.95 255.195 208.973 254.881 208.287 C 254.574 207.616 254.124 207.151 253.398 206.763 C 252.664 206.37 251.852 206.186 250.831 206.186 C 249.185 206.186 247.926 206.742 246.863 208.009 C 246.726 208.167 246.506 208.223 246.31 208.151 C 246.114 208.078 245.984 207.891 245.984 207.682 L 245.984 200.991 L 244.523 200.991 L 244.523 220.034 Z M 268.723 219.655 C 268.004 220.186 267.501 220.511 266.614 220.852 C 265.726 221.183 264.733 221.362 263.723 221.362 C 262.053 221.362 260.643 220.912 259.71 220.063 C 258.776 219.214 258.261 218.017 258.261 216.706 C 258.261 215.934 258.461 215.164 258.808 214.517 C 259.164 213.882 259.667 213.324 260.236 212.929 C 260.797 212.553 261.467 212.248 262.16 212.053 C 262.665 211.92 263.429 211.791 264.416 211.671 C 266.385 211.436 267.47 211.226 268.373 210.953 C 268.376 210.818 268.378 210.762 268.378 210.677 C 268.378 209.753 268.242 209.233 267.849 208.932 C 267.314 208.428 266.546 208.223 265.378 208.223 C 264.278 208.223 263.571 208.371 263.11 208.735 C 262.628 209.062 262.315 209.641 262.075 210.609 C 262.012 210.855 261.775 211.015 261.524 210.98 L 259.117 210.652 C 258.979 210.634 258.855 210.558 258.775 210.445 C 258.695 210.331 258.666 210.189 258.695 210.053 C 258.929 208.976 259.331 208.036 259.872 207.352 C 260.42 206.659 261.263 206.091 262.268 205.729 C 263.261 205.371 264.446 205.186 265.733 205.186 C 267.009 205.186 268.104 205.351 268.931 205.656 C 269.753 205.971 270.428 206.413 270.85 206.906 C 271.249 207.404 271.557 208.078 271.72 208.803 C 271.806 209.257 271.852 210.061 271.852 211.169 L 271.852 214.45 C 271.852 216.729 271.901 218.134 272.003 218.706 C 272.096 219.27 272.276 219.772 272.569 220.291 C 272.655 220.445 272.653 220.634 272.563 220.787 C 272.473 220.94 272.309 221.034 272.132 221.034 L 269.561 221.034 C 269.372 221.034 269.198 220.927 269.114 220.758 C 268.841 220.201 268.82 220.055 268.723 219.655 Z M 269.255 218.279 C 269.427 218.347 269.547 218.506 269.566 218.69 C 269.631 219.334 269.719 219.642 269.881 220.034 L 271.347 220.034 C 271.198 219.655 271.133 219.524 271.017 218.876 C 270.909 218.236 270.852 216.747 270.852 214.45 L 270.852 211.169 C 270.852 210.089 270.816 209.382 270.739 208.997 C 270.61 208.378 270.408 207.93 270.078 207.542 C 269.771 207.151 269.306 206.86 268.579 206.592 C 267.857 206.313 266.937 206.186 265.733 206.186 C 264.523 206.186 263.511 206.343 262.608 206.669 C 261.717 206.991 261.11 207.399 260.656 207.972 C 260.195 208.555 259.998 209.011 259.799 209.736 L 261.235 209.932 C 261.533 209.045 261.897 208.413 262.518 207.929 C 263.159 207.481 264.162 207.223 265.378 207.223 C 266.689 207.223 267.788 207.574 268.511 208.182 C 269.048 208.702 269.378 209.596 269.378 210.677 C 269.378 210.773 269.373 210.994 269.364 211.333 C 269.358 211.54 269.225 211.723 269.029 211.791 C 268.055 212.128 266.54 212.423 264.535 212.663 C 263.571 212.78 262.878 212.896 262.417 213.019 C 261.799 213.187 261.285 213.421 260.798 213.757 C 260.32 214.072 259.974 214.458 259.684 214.999 C 259.384 215.526 259.261 216.055 259.261 216.706 C 259.261 217.819 259.602 218.613 260.382 219.323 C 261.162 220.032 262.204 220.362 263.723 220.362 C 264.646 220.362 265.463 220.223 266.26 219.916 C 267.06 219.619 267.863 219.115 268.745 218.362 C 268.886 218.242 269.082 218.21 269.255 218.279 Z M 269.364 214.149 C 269.361 215.273 269.203 216.203 268.919 216.827 C 268.527 217.611 267.882 218.288 267.086 218.748 C 266.284 219.187 265.319 219.434 264.311 219.434 C 263.282 219.434 262.375 219.159 261.801 218.653 C 261.227 218.148 260.886 217.397 260.886 216.638 C 260.886 216.139 261.05 215.613 261.308 215.197 C 261.586 214.789 262.02 214.429 262.499 214.21 C 262.962 214.013 263.742 213.831 264.774 213.682 C 266.539 213.431 267.82 213.137 268.675 212.784 C 268.829 212.721 269.005 212.739 269.143 212.832 C 269.281 212.925 269.364 213.08 269.364 213.247 Z M 268.364 213.953 C 267.48 214.228 266.723 214.413 264.916 214.672 C 263.924 214.813 263.273 214.959 262.898 215.127 C 262.538 215.273 262.324 215.447 262.146 215.741 C 261.949 216.026 261.886 216.279 261.886 216.638 C 261.886 217.191 262.042 217.533 262.461 217.903 C 262.88 218.271 263.426 218.434 264.311 218.434 C 265.199 218.434 265.92 218.266 266.596 217.876 C 267.276 217.507 267.715 217.049 268.017 216.394 C 268.26 215.906 268.367 215.194 268.364 214.149 Z M 281.032 218.252 L 281.388 220.426 C 281.432 220.69 281.259 220.941 280.998 220.996 C 280.283 221.145 279.611 221.225 279.035 221.225 C 278.092 221.225 277.275 221.046 276.708 220.736 C 276.158 220.407 275.707 219.918 275.46 219.387 C 275.239 218.853 275.118 217.784 275.117 216.282 L 275.117 208.429 L 273.813 208.429 C 273.537 208.429 273.313 208.205 273.313 207.929 L 273.313 206.014 C 273.313 205.738 273.537 205.514 273.813 205.514 L 275.117 205.514 L 275.117 202.419 C 275.117 202.244 275.209 202.081 275.359 201.991 L 277.807 200.514 C 277.961 200.421 278.154 200.418 278.311 200.507 C 278.468 200.595 278.565 200.762 278.565 200.942 L 278.565 205.514 L 280.539 205.514 C 280.815 205.514 281.039 205.738 281.039 206.014 L 281.039 207.929 C 281.039 208.205 280.815 208.429 280.539 208.429 L 278.565 208.429 L 278.565 216.419 C 278.564 217.096 278.598 217.444 278.654 217.574 C 278.71 217.703 278.74 217.753 278.877 217.823 C 278.996 217.911 279.146 217.929 279.459 217.929 C 279.71 217.929 280.035 217.901 280.468 217.838 C 280.738 217.799 280.988 217.984 281.032 218.252 Z M 279.459 218.929 C 279.043 218.929 278.633 218.828 278.359 218.679 C 278.106 218.512 277.853 218.242 277.736 217.97 C 277.619 217.699 277.566 217.144 277.565 216.419 L 277.565 207.929 C 277.565 207.653 277.789 207.429 278.065 207.429 L 280.039 207.429 L 280.039 206.514 L 278.065 206.514 C 277.789 206.514 277.565 206.29 277.565 206.014 L 277.565 201.828 L 276.117 202.701 L 276.117 206.014 C 276.117 206.29 275.893 206.514 275.617 206.514 L 274.313 206.514 L 274.313 207.429 L 275.617 207.429 C 275.893 207.429 276.117 207.653 276.117 207.929 L 276.117 216.282 C 276.116 217.733 276.195 218.601 276.376 218.987 C 276.531 219.377 276.772 219.632 277.206 219.868 C 277.624 220.122 278.192 220.225 279.035 220.225 C 279.553 220.225 279.85 220.188 280.323 220.108 L 280.123 218.889 C 279.868 218.915 279.754 218.929 279.459 218.929 Z" style="fill: none;" transform="matrix(4.899075031280518, 0, 0, 4.899075031280518, -992.6082974032978, -812.6744556993779)"/>
  <path d="M 243.523 220.534 L 243.523 200.491 C 243.523 200.215 243.747 199.991 244.023 199.991 L 246.484 199.991 C 246.76 199.991 246.984 200.215 246.984 200.491 L 246.984 206.523 C 248.076 205.663 248.977 205.186 250.831 205.186 C 251.962 205.186 253.019 205.426 253.87 205.881 C 254.73 206.341 255.414 207.048 255.791 207.871 C 256.161 208.68 256.346 209.872 256.349 211.333 L 256.349 220.534 C 256.349 220.81 256.125 221.034 255.849 221.034 L 253.388 221.034 C 253.112 221.034 252.888 220.81 252.888 220.534 L 252.888 211.333 C 252.898 210.174 252.681 209.469 252.226 208.991 C 251.768 208.509 251.213 208.305 250.325 208.305 C 249.663 208.305 249.104 208.451 248.521 208.804 C 247.939 209.133 247.596 209.533 247.355 210.106 C 247.105 210.696 246.981 211.489 246.984 212.591 L 246.984 220.534 C 246.984 220.81 246.76 221.034 246.484 221.034 L 244.023 221.034 C 243.747 221.034 243.523 220.81 243.523 220.534 Z M 245.984 220.034 L 245.984 212.591 C 245.987 211.414 246.136 210.42 246.433 209.717 C 246.738 208.995 247.312 208.369 248.014 207.942 C 248.717 207.538 249.53 207.305 250.325 207.305 C 251.387 207.305 252.341 207.661 252.95 208.301 C 253.562 208.944 253.878 210.031 253.888 211.333 L 253.888 220.034 L 255.349 220.034 L 255.349 211.333 C 255.352 209.95 255.195 208.973 254.881 208.287 C 254.574 207.616 254.124 207.151 253.398 206.763 C 252.664 206.37 251.852 206.186 250.831 206.186 C 249.185 206.186 247.926 206.742 246.863 208.009 C 246.726 208.167 246.506 208.223 246.31 208.151 C 246.114 208.078 245.984 207.891 245.984 207.682 L 245.984 200.991 L 244.523 200.991 L 244.523 220.034 Z M 268.723 219.655 C 268.004 220.186 267.501 220.511 266.614 220.852 C 265.726 221.183 264.733 221.362 263.723 221.362 C 262.053 221.362 260.643 220.912 259.71 220.063 C 258.776 219.214 258.261 218.017 258.261 216.706 C 258.261 215.934 258.461 215.164 258.808 214.517 C 259.164 213.882 259.667 213.324 260.236 212.929 C 260.797 212.553 261.467 212.248 262.16 212.053 C 262.665 211.92 263.429 211.791 264.416 211.671 C 266.385 211.436 267.47 211.226 268.373 210.953 C 268.376 210.818 268.378 210.762 268.378 210.677 C 268.378 209.753 268.242 209.233 267.849 208.932 C 267.314 208.428 266.546 208.223 265.378 208.223 C 264.278 208.223 263.571 208.371 263.11 208.735 C 262.628 209.062 262.315 209.641 262.075 210.609 C 262.012 210.855 261.775 211.015 261.524 210.98 L 259.117 210.652 C 258.979 210.634 258.855 210.558 258.775 210.445 C 258.695 210.331 258.666 210.189 258.695 210.053 C 258.929 208.976 259.331 208.036 259.872 207.352 C 260.42 206.659 261.263 206.091 262.268 205.729 C 263.261 205.371 264.446 205.186 265.733 205.186 C 267.009 205.186 268.104 205.351 268.931 205.656 C 269.753 205.971 270.428 206.413 270.85 206.906 C 271.249 207.404 271.557 208.078 271.72 208.803 C 271.806 209.257 271.852 210.061 271.852 211.169 L 271.852 214.45 C 271.852 216.729 271.901 218.134 272.003 218.706 C 272.096 219.27 272.276 219.772 272.569 220.291 C 272.655 220.445 272.653 220.634 272.563 220.787 C 272.473 220.94 272.309 221.034 272.132 221.034 L 269.561 221.034 C 269.372 221.034 269.198 220.927 269.114 220.758 C 268.841 220.201 268.82 220.055 268.723 219.655 Z M 269.255 218.279 C 269.427 218.347 269.547 218.506 269.566 218.69 C 269.631 219.334 269.719 219.642 269.881 220.034 L 271.347 220.034 C 271.198 219.655 271.133 219.524 271.017 218.876 C 270.909 218.236 270.852 216.747 270.852 214.45 L 270.852 211.169 C 270.852 210.089 270.816 209.382 270.739 208.997 C 270.61 208.378 270.408 207.93 270.078 207.542 C 269.771 207.151 269.306 206.86 268.579 206.592 C 267.857 206.313 266.937 206.186 265.733 206.186 C 264.523 206.186 263.511 206.343 262.608 206.669 C 261.717 206.991 261.11 207.399 260.656 207.972 C 260.195 208.555 259.998 209.011 259.799 209.736 L 261.235 209.932 C 261.533 209.045 261.897 208.413 262.518 207.929 C 263.159 207.481 264.162 207.223 265.378 207.223 C 266.689 207.223 267.788 207.574 268.511 208.182 C 269.048 208.702 269.378 209.596 269.378 210.677 C 269.378 210.773 269.373 210.994 269.364 211.333 C 269.358 211.54 269.225 211.723 269.029 211.791 C 268.055 212.128 266.54 212.423 264.535 212.663 C 263.571 212.78 262.878 212.896 262.417 213.019 C 261.799 213.187 261.285 213.421 260.798 213.757 C 260.32 214.072 259.974 214.458 259.684 214.999 C 259.384 215.526 259.261 216.055 259.261 216.706 C 259.261 217.819 259.602 218.613 260.382 219.323 C 261.162 220.032 262.204 220.362 263.723 220.362 C 264.646 220.362 265.463 220.223 266.26 219.916 C 267.06 219.619 267.863 219.115 268.745 218.362 C 268.886 218.242 269.082 218.21 269.255 218.279 Z M 269.364 214.149 C 269.361 215.273 269.203 216.203 268.919 216.827 C 268.527 217.611 267.882 218.288 267.086 218.748 C 266.284 219.187 265.319 219.434 264.311 219.434 C 263.282 219.434 262.375 219.159 261.801 218.653 C 261.227 218.148 260.886 217.397 260.886 216.638 C 260.886 216.139 261.05 215.613 261.308 215.197 C 261.586 214.789 262.02 214.429 262.499 214.21 C 262.962 214.013 263.742 213.831 264.774 213.682 C 266.539 213.431 267.82 213.137 268.675 212.784 C 268.829 212.721 269.005 212.739 269.143 212.832 C 269.281 212.925 269.364 213.08 269.364 213.247 Z M 268.364 213.953 C 267.48 214.228 266.723 214.413 264.916 214.672 C 263.924 214.813 263.273 214.959 262.898 215.127 C 262.538 215.273 262.324 215.447 262.146 215.741 C 261.949 216.026 261.886 216.279 261.886 216.638 C 261.886 217.191 262.042 217.533 262.461 217.903 C 262.88 218.271 263.426 218.434 264.311 218.434 C 265.199 218.434 265.92 218.266 266.596 217.876 C 267.276 217.507 267.715 217.049 268.017 216.394 C 268.26 215.906 268.367 215.194 268.364 214.149 Z M 281.032 218.252 L 281.388 220.426 C 281.432 220.69 281.259 220.941 280.998 220.996 C 280.283 221.145 279.611 221.225 279.035 221.225 C 278.092 221.225 277.275 221.046 276.708 220.736 C 276.158 220.407 275.707 219.918 275.46 219.387 C 275.239 218.853 275.118 217.784 275.117 216.282 L 275.117 208.429 L 273.813 208.429 C 273.537 208.429 273.313 208.205 273.313 207.929 L 273.313 206.014 C 273.313 205.738 273.537 205.514 273.813 205.514 L 275.117 205.514 L 275.117 202.419 C 275.117 202.244 275.209 202.081 275.359 201.991 L 277.807 200.514 C 277.961 200.421 278.154 200.418 278.311 200.507 C 278.468 200.595 278.565 200.762 278.565 200.942 L 278.565 205.514 L 280.539 205.514 C 280.815 205.514 281.039 205.738 281.039 206.014 L 281.039 207.929 C 281.039 208.205 280.815 208.429 280.539 208.429 L 278.565 208.429 L 278.565 216.419 C 278.564 217.096 278.598 217.444 278.654 217.574 C 278.71 217.703 278.74 217.753 278.877 217.823 C 278.996 217.911 279.146 217.929 279.459 217.929 C 279.71 217.929 280.035 217.901 280.468 217.838 C 280.738 217.799 280.988 217.984 281.032 218.252 Z M 279.459 218.929 C 279.043 218.929 278.633 218.828 278.359 218.679 C 278.106 218.512 277.853 218.242 277.736 217.97 C 277.619 217.699 277.566 217.144 277.565 216.419 L 277.565 207.929 C 277.565 207.653 277.789 207.429 278.065 207.429 L 280.039 207.429 L 280.039 206.514 L 278.065 206.514 C 277.789 206.514 277.565 206.29 277.565 206.014 L 277.565 201.828 L 276.117 202.701 L 276.117 206.014 C 276.117 206.29 275.893 206.514 275.617 206.514 L 274.313 206.514 L 274.313 207.429 L 275.617 207.429 C 275.893 207.429 276.117 207.653 276.117 207.929 L 276.117 216.282 C 276.116 217.733 276.195 218.601 276.376 218.987 C 276.531 219.377 276.772 219.632 277.206 219.868 C 277.624 220.122 278.192 220.225 279.035 220.225 C 279.553 220.225 279.85 220.188 280.323 220.108 L 280.123 218.889 C 279.868 218.915 279.754 218.929 279.459 218.929 Z" style="fill: none;" transform="matrix(4.899075031280518, 0, 0, 4.899075031280518, -992.6082974032978, -812.6744556993779)"/>
  <path d="M 243.523 220.534 L 243.523 200.491 C 243.523 200.215 243.747 199.991 244.023 199.991 L 246.484 199.991 C 246.76 199.991 246.984 200.215 246.984 200.491 L 246.984 206.523 C 248.076 205.663 248.977 205.186 250.831 205.186 C 251.962 205.186 253.019 205.426 253.87 205.881 C 254.73 206.341 255.414 207.048 255.791 207.871 C 256.161 208.68 256.346 209.872 256.349 211.333 L 256.349 220.534 C 256.349 220.81 256.125 221.034 255.849 221.034 L 253.388 221.034 C 253.112 221.034 252.888 220.81 252.888 220.534 L 252.888 211.333 C 252.898 210.174 252.681 209.469 252.226 208.991 C 251.768 208.509 251.213 208.305 250.325 208.305 C 249.663 208.305 249.104 208.451 248.521 208.804 C 247.939 209.133 247.596 209.533 247.355 210.106 C 247.105 210.696 246.981 211.489 246.984 212.591 L 246.984 220.534 C 246.984 220.81 246.76 221.034 246.484 221.034 L 244.023 221.034 C 243.747 221.034 243.523 220.81 243.523 220.534 Z M 245.984 220.034 L 245.984 212.591 C 245.987 211.414 246.136 210.42 246.433 209.717 C 246.738 208.995 247.312 208.369 248.014 207.942 C 248.717 207.538 249.53 207.305 250.325 207.305 C 251.387 207.305 252.341 207.661 252.95 208.301 C 253.562 208.944 253.878 210.031 253.888 211.333 L 253.888 220.034 L 255.349 220.034 L 255.349 211.333 C 255.352 209.95 255.195 208.973 254.881 208.287 C 254.574 207.616 254.124 207.151 253.398 206.763 C 252.664 206.37 251.852 206.186 250.831 206.186 C 249.185 206.186 247.926 206.742 246.863 208.009 C 246.726 208.167 246.506 208.223 246.31 208.151 C 246.114 208.078 245.984 207.891 245.984 207.682 L 245.984 200.991 L 244.523 200.991 L 244.523 220.034 Z M 268.723 219.655 C 268.004 220.186 267.501 220.511 266.614 220.852 C 265.726 221.183 264.733 221.362 263.723 221.362 C 262.053 221.362 260.643 220.912 259.71 220.063 C 258.776 219.214 258.261 218.017 258.261 216.706 C 258.261 215.934 258.461 215.164 258.808 214.517 C 259.164 213.882 259.667 213.324 260.236 212.929 C 260.797 212.553 261.467 212.248 262.16 212.053 C 262.665 211.92 263.429 211.791 264.416 211.671 C 266.385 211.436 267.47 211.226 268.373 210.953 C 268.376 210.818 268.378 210.762 268.378 210.677 C 268.378 209.753 268.242 209.233 267.849 208.932 C 267.314 208.428 266.546 208.223 265.378 208.223 C 264.278 208.223 263.571 208.371 263.11 208.735 C 262.628 209.062 262.315 209.641 262.075 210.609 C 262.012 210.855 261.775 211.015 261.524 210.98 L 259.117 210.652 C 258.979 210.634 258.855 210.558 258.775 210.445 C 258.695 210.331 258.666 210.189 258.695 210.053 C 258.929 208.976 259.331 208.036 259.872 207.352 C 260.42 206.659 261.263 206.091 262.268 205.729 C 263.261 205.371 264.446 205.186 265.733 205.186 C 267.009 205.186 268.104 205.351 268.931 205.656 C 269.753 205.971 270.428 206.413 270.85 206.906 C 271.249 207.404 271.557 208.078 271.72 208.803 C 271.806 209.257 271.852 210.061 271.852 211.169 L 271.852 214.45 C 271.852 216.729 271.901 218.134 272.003 218.706 C 272.096 219.27 272.276 219.772 272.569 220.291 C 272.655 220.445 272.653 220.634 272.563 220.787 C 272.473 220.94 272.309 221.034 272.132 221.034 L 269.561 221.034 C 269.372 221.034 269.198 220.927 269.114 220.758 C 268.841 220.201 268.82 220.055 268.723 219.655 Z M 269.255 218.279 C 269.427 218.347 269.547 218.506 269.566 218.69 C 269.631 219.334 269.719 219.642 269.881 220.034 L 271.347 220.034 C 271.198 219.655 271.133 219.524 271.017 218.876 C 270.909 218.236 270.852 216.747 270.852 214.45 L 270.852 211.169 C 270.852 210.089 270.816 209.382 270.739 208.997 C 270.61 208.378 270.408 207.93 270.078 207.542 C 269.771 207.151 269.306 206.86 268.579 206.592 C 267.857 206.313 266.937 206.186 265.733 206.186 C 264.523 206.186 263.511 206.343 262.608 206.669 C 261.717 206.991 261.11 207.399 260.656 207.972 C 260.195 208.555 259.998 209.011 259.799 209.736 L 261.235 209.932 C 261.533 209.045 261.897 208.413 262.518 207.929 C 263.159 207.481 264.162 207.223 265.378 207.223 C 266.689 207.223 267.788 207.574 268.511 208.182 C 269.048 208.702 269.378 209.596 269.378 210.677 C 269.378 210.773 269.373 210.994 269.364 211.333 C 269.358 211.54 269.225 211.723 269.029 211.791 C 268.055 212.128 266.54 212.423 264.535 212.663 C 263.571 212.78 262.878 212.896 262.417 213.019 C 261.799 213.187 261.285 213.421 260.798 213.757 C 260.32 214.072 259.974 214.458 259.684 214.999 C 259.384 215.526 259.261 216.055 259.261 216.706 C 259.261 217.819 259.602 218.613 260.382 219.323 C 261.162 220.032 262.204 220.362 263.723 220.362 C 264.646 220.362 265.463 220.223 266.26 219.916 C 267.06 219.619 267.863 219.115 268.745 218.362 C 268.886 218.242 269.082 218.21 269.255 218.279 Z M 269.364 214.149 C 269.361 215.273 269.203 216.203 268.919 216.827 C 268.527 217.611 267.882 218.288 267.086 218.748 C 266.284 219.187 265.319 219.434 264.311 219.434 C 263.282 219.434 262.375 219.159 261.801 218.653 C 261.227 218.148 260.886 217.397 260.886 216.638 C 260.886 216.139 261.05 215.613 261.308 215.197 C 261.586 214.789 262.02 214.429 262.499 214.21 C 262.962 214.013 263.742 213.831 264.774 213.682 C 266.539 213.431 267.82 213.137 268.675 212.784 C 268.829 212.721 269.005 212.739 269.143 212.832 C 269.281 212.925 269.364 213.08 269.364 213.247 Z M 268.364 213.953 C 267.48 214.228 266.723 214.413 264.916 214.672 C 263.924 214.813 263.273 214.959 262.898 215.127 C 262.538 215.273 262.324 215.447 262.146 215.741 C 261.949 216.026 261.886 216.279 261.886 216.638 C 261.886 217.191 262.042 217.533 262.461 217.903 C 262.88 218.271 263.426 218.434 264.311 218.434 C 265.199 218.434 265.92 218.266 266.596 217.876 C 267.276 217.507 267.715 217.049 268.017 216.394 C 268.26 215.906 268.367 215.194 268.364 214.149 Z M 281.032 218.252 L 281.388 220.426 C 281.432 220.69 281.259 220.941 280.998 220.996 C 280.283 221.145 279.611 221.225 279.035 221.225 C 278.092 221.225 277.275 221.046 276.708 220.736 C 276.158 220.407 275.707 219.918 275.46 219.387 C 275.239 218.853 275.118 217.784 275.117 216.282 L 275.117 208.429 L 273.813 208.429 C 273.537 208.429 273.313 208.205 273.313 207.929 L 273.313 206.014 C 273.313 205.738 273.537 205.514 273.813 205.514 L 275.117 205.514 L 275.117 202.419 C 275.117 202.244 275.209 202.081 275.359 201.991 L 277.807 200.514 C 277.961 200.421 278.154 200.418 278.311 200.507 C 278.468 200.595 278.565 200.762 278.565 200.942 L 278.565 205.514 L 280.539 205.514 C 280.815 205.514 281.039 205.738 281.039 206.014 L 281.039 207.929 C 281.039 208.205 280.815 208.429 280.539 208.429 L 278.565 208.429 L 278.565 216.419 C 278.564 217.096 278.598 217.444 278.654 217.574 C 278.71 217.703 278.74 217.753 278.877 217.823 C 278.996 217.911 279.146 217.929 279.459 217.929 C 279.71 217.929 280.035 217.901 280.468 217.838 C 280.738 217.799 280.988 217.984 281.032 218.252 Z M 279.459 218.929 C 279.043 218.929 278.633 218.828 278.359 218.679 C 278.106 218.512 277.853 218.242 277.736 217.97 C 277.619 217.699 277.566 217.144 277.565 216.419 L 277.565 207.929 C 277.565 207.653 277.789 207.429 278.065 207.429 L 280.039 207.429 L 280.039 206.514 L 278.065 206.514 C 277.789 206.514 277.565 206.29 277.565 206.014 L 277.565 201.828 L 276.117 202.701 L 276.117 206.014 C 276.117 206.29 275.893 206.514 275.617 206.514 L 274.313 206.514 L 274.313 207.429 L 275.617 207.429 C 275.893 207.429 276.117 207.653 276.117 207.929 L 276.117 216.282 C 276.116 217.733 276.195 218.601 276.376 218.987 C 276.531 219.377 276.772 219.632 277.206 219.868 C 277.624 220.122 278.192 220.225 279.035 220.225 C 279.553 220.225 279.85 220.188 280.323 220.108 L 280.123 218.889 C 279.868 218.915 279.754 218.929 279.459 218.929 Z" style="fill: none;" transform="matrix(4.899075031280518, 0, 0, 4.899075031280518, -992.6082974032978, -812.6744556993779)"/>
  <path transform="matrix(4.899075, 0, 0, 4.899075, -992.608297, -812.674456)" style="fill: rgb(51, 51, 51); stroke-linecap: round; stroke-linejoin: round; text-wrap-mode: nowrap;"/>
</svg>
