<?xml version="1.0" encoding="utf-8"?>
<svg xmlns="http://www.w3.org/2000/svg" viewBox="47.915 160.768 404.8 158.92" height="40px">
  <g transform="matrix(1.289296, 0, 0, 1.289296, -60.963693, -36.547829)" style="">
    <path style="fill: none; stroke-linecap: round; stroke: rgb(255, 113, 21); stroke-linejoin: round; transform-origin: 154.554px 218.929px; stroke-width: 11.6343px;" d="M 186.765 259.522 C 164.475 272.54 138.436 266.592 123.022 249.88 C 99.355 262.232 117.787 252.436 94.877 264.394 C 106.303 227.118 96.87 257.302 109.561 218.001 C 109.518 217.169 109.608 216.329 109.604 215.482 C 109.434 181.512 141.738 156.764 174.493 165.767"/>
    <path style="stroke-linecap: round; stroke-width: 6px; fill: none; stroke: rgb(255, 113, 21); transform-box: fill-box; transform-origin: 0.19941% 50.2038%;" d="M 161.857 240.498 C 183.861 240.498 197.614 216.678 186.612 197.62 C 181.27 188.367 171.214 182.866 160.541 183.358" transform="matrix(-0.000104, 1.000002, -0.999998, -0.000104, 0.000013, -0.000012)"/>
    <path style="fill: none; stroke-linejoin: round; stroke-linecap: round; stroke-width: 6px; stroke: rgb(255, 113, 21);" d="M 174.298 194.091 L 163.805 200.805 L 179.543 201.248"/>
    <ellipse style="fill: none; stroke-width: 9px; stroke: rgb(255, 113, 21);" cx="147.717" cy="196.788" rx="4.218" ry="4.218"/>
  </g>
  <path d="M 271.79 306.211 Q 265.997 306.211 264.202 300.01 Q 262.325 293.319 260.775 280.999 Q 259.306 269.168 259.306 261.58 Q 259.306 259.459 259.51 255.134 Q 259.714 250.81 259.714 248.688 Q 259.714 233.349 252.044 233.349 Q 241.682 233.349 233.523 242.732 Q 229.362 247.546 222.1 261.09 Q 222.1 292.177 219.489 297.888 Q 217.205 302.947 212.391 302.947 Q 209.046 302.947 206.516 300.662 Q 203.987 298.378 203.987 295.114 Q 203.987 293.972 204.721 291.524 Q 205.374 289.484 205.619 279.612 L 205.863 267.536 L 206.108 207.566 Q 206.679 197.449 206.679 193.94 Q 206.679 189.779 205.904 186.067 Q 205.129 182.354 205.129 178.356 Q 205.129 174.929 207.495 172.686 Q 209.861 170.442 213.288 170.442 Q 219.979 170.442 221.121 177.622 Q 222.427 185.536 222.427 191.901 Q 222.427 200.468 221.855 209.769 Q 221.366 218.663 221.447 227.638 L 221.529 234.818 Q 228.22 225.843 235.848 221.396 Q 243.477 216.949 252.044 216.949 Q 265.589 216.949 270.647 225.761 Q 274.237 231.962 274.727 246.649 L 275.38 262.233 L 277.011 279.204 Q 278.154 288.75 279.786 296.012 Q 280.112 297.399 280.112 298.378 Q 280.112 301.723 277.664 303.967 Q 275.216 306.211 271.79 306.211 Z M 363.74 306.537 Q 362.19 306.537 358.11 302.947 Q 354.438 299.602 352.643 296.991 Q 344.811 301.234 338.854 303.396 Q 332.898 305.558 328.9 305.558 Q 309.808 305.558 301.077 294.788 Q 292.837 284.67 292.837 263.783 Q 292.837 244.038 306.422 230.004 Q 320.007 215.97 338.854 215.97 Q 345.953 215.97 354.765 219.642 Q 365.861 224.211 365.861 230.657 Q 365.861 232.86 364.229 234.573 Q 363.413 237.674 362.965 244.772 Q 362.516 251.871 362.434 262.967 Q 362.353 273.084 363.821 278.959 Q 364.637 282.549 368.962 293.319 Q 369.533 294.788 370.838 297.644 L 371.328 299.031 Q 371.328 302.294 369.043 304.416 Q 366.759 306.537 363.74 306.537 Z M 346.769 249.831 Q 346.769 246.322 347.218 242.202 Q 347.666 238.082 348.564 233.431 Q 345.545 231.881 343.383 231.146 Q 341.221 230.412 339.915 230.412 Q 327.268 230.412 318.089 240.733 Q 308.91 251.055 308.91 264.517 Q 308.91 277.898 313.642 284.589 Q 318.375 291.279 327.839 291.279 Q 335.672 291.279 341.139 288.424 Q 344.076 286.873 349.38 282.223 Q 346.769 260.601 346.769 249.831 Z M 440.112 231.636 Q 438.399 231.636 436.073 231.473 Q 433.748 231.309 432.034 231.309 Q 430.158 231.309 420.938 232.533 L 422.488 280.754 L 422.57 284.344 L 422.651 288.505 Q 422.978 306.374 414.084 306.374 Q 410.821 306.374 408.414 304.252 Q 406.007 302.131 406.007 298.949 Q 406.007 295.849 406.251 289.648 Q 406.496 283.447 406.496 280.346 L 404.864 232.696 Q 398.908 232.452 386.751 231.309 Q 379.489 230.33 379.489 223.232 Q 379.489 219.642 381.692 217.276 Q 383.895 214.909 387.322 214.909 L 404.456 216.297 Q 404.456 212.135 404.089 205.159 Q 403.722 198.183 403.722 195.083 Q 403.722 191.656 406.088 189.412 Q 408.454 187.168 411.881 187.168 Q 419.225 187.168 420.448 199.162 Q 420.693 202.181 420.693 206.424 L 420.53 211.156 L 420.448 216.215 Q 430.566 214.909 432.034 214.909 Q 440.52 214.909 443.131 215.725 Q 448.108 217.357 448.108 223.395 Q 448.108 226.985 445.864 229.31 Q 443.621 231.636 440.112 231.636 Z" style="fill: rgb(255, 113, 21); text-wrap-mode: nowrap;"/>
</svg>