<?xml version="1.0" encoding="utf-8"?>
<svg xmlns="http://www.w3.org/2000/svg" viewBox="0 0 500 500">
  <g transform="matrix(2.795285, 0, 0, 2.795285, -1135.387964, -176.256657)" style="">
    <path style="stroke-width: 7px; stroke: rgb(255, 113, 21); fill: none;" d="M 432.842 177.41 C 432.842 177.41 447.528 195.218 475.052 193.899 C 495.077 193.899 522.626 169.049 520.998 139.598 C 519.37 110.147 498.173 89.389 466.477 90.353 C 434.781 91.317 418.772 123.064 418.772 135.242 C 418.972 147.152 418.387 190.601 418.387 190.601 L 432.842 177.41 Z"/>
    <path style="stroke-width: 5px; stroke-linecap: round; stroke: rgb(255, 113, 21); fill: none;" d="M 440.757 140.148 C 440.757 140.148 441.82 168.281 469.555 168.177 C 497.29 168.073 499.35 139.388 498.493 139.817"/>
    <polyline style="stroke-linecap: round; stroke-linejoin: round; stroke-width: 6px; stroke: rgb(255, 113, 21); fill: none;" points="482.997 121.275 472.753 127.678 488.119 127.678"/>
    <path style="stroke-width: 7px; stroke: rgb(255, 113, 21); fill: none; transform-box: fill-box; transform-origin: 50% 50%;" d="M 495.045 128.476 C 495.045 128.476 509.731 110.668 537.255 111.987 C 549.41 111.987 563.786 120.435 572.845 133.661 C 536.025 141.585 521.466 184.535 541.35 214.119 C 537.338 215.026 533.201 214.814 528.778 214.835 C 503.225 214.765 482.043 188.371 481.402 168.509 C 480.748 156.172 480.59 115.285 480.59 115.285 L 495.045 128.476 Z" transform="matrix(-1, 0, 0, -1, 0.000007, -0.212483)"/>
    <path style="stroke-width: 5px; stroke-linecap: round; transform-box: fill-box; transform-origin: 50% 50%; stroke: rgb(255, 113, 21); fill: none;" d="M 534.361 191.705 C 534.361 191.705 524.835 191.615 500.824 191.673 C 501.317 185.812 506.628 163.708 529.865 163.463 C 539.833 163.5 546.485 167.23 550.877 171.973" transform="matrix(-1, 0, 0, -1, -0.000046, 0.000011)"/>
    <ellipse style="stroke: rgb(255, 113, 21); fill: rgb(252, 112, 22);" cx="456.414" cy="123.614" rx="7.669" ry="7.669"/>
    <ellipse style="stroke: rgb(255, 113, 21); fill: rgb(252, 112, 22);" cx="530.989" cy="146.841" rx="7.669" ry="7.669"/>
  </g>
</svg>