<?xml version="1.0" encoding="utf-8"?>
<svg xmlns="http://www.w3.org/2000/svg" viewBox="0 0 24 24" width="20px" height="20px">
  <g transform="matrix(0.893238, 0, 0, 0.893238, 1.038021, 1.2972)" style="">
    <path style="stroke-linejoin: round; fill: none; stroke: rgb(68, 68, 68);" d="M 3.997 10.063 C 3.997 10.063 3.916 16.395 3.916 17.721 C 3.916 19.047 4.268 19.995 5.973 20.049 C 7.678 20.103 17.393 20.049 17.393 20.049 C 17.393 20.049 19.017 20.103 19.423 18.425 C 19.829 16.747 20.533 12.796 20.614 12.092 C 20.695 11.388 20.479 10.09 18.774 9.981 C 17.069 9.872 15.039 9.981 15.039 9.981 C 15.039 9.981 15.467 7.404 15.851 5.269 C 15.942 2.802 12.969 4.24 12.377 5.048 C 11.238 6.704 11.282 6.83 9.794 9.049 C 9.535 9.413 8.825 10.058 7.704 10.045 C 5.764 10.057 5.761 9.972 3.997 10.063 Z"/>
    <path style="fill: none; stroke: rgb(68, 68, 68);" d="M 7.486 10.133 L 7.366 20.058"/>
  </g>
</svg>
