<?xml version="1.0" encoding="utf-8"?>
<svg xmlns="http://www.w3.org/2000/svg" viewBox="0 0 24 24" width="14" height="14">
  <path d="M 14.876 21.499 L 9.122 21.499 C 8.503 21.498 8 20.996 7.999 20.376 L 7.999 13.499 L 4.125 13.499 C 3.6799999999999997 13.488 3.284 13.213 3.118 12.799 C 2.907 12.357 2.974 11.832 3.289 11.456 L 11.165 2.867 C 11.614 2.377 12.387 2.379 12.833 2.871 L 20.705 11.452 C 21.025 11.828 21.094 12.356 20.881 12.8 C 20.716 13.214 20.321 13.489 19.876 13.5 L 15.999 13.5 L 15.999 20.377 C 15.998 20.997 15.496 21.498 14.876 21.499 Z" style="fill: none; stroke-width: 2px; stroke: rgb(75, 75, 75);"/>
</svg>